<svg xmlns="http://www.w3.org/2000/svg" width="28.779" height="28.818" viewBox="0 0 28.779 28.818"><defs><style>.a{fill:#fff;stroke:#44afa7;}</style></defs><path class="a" d="M17.279,21.456H8.945a1.39,1.39,0,0,0,0,2.779h8.334a1.39,1.39,0,0,0,0-2.779Zm-5.556-8.338H14.5a1.39,1.39,0,0,0,0-2.779H11.723a1.39,1.39,0,0,0,0,2.779ZM28.39,15.9H24.223V3.391A1.389,1.389,0,0,0,22.14,2.182l-4.167,2.39-4.167-2.39a1.388,1.388,0,0,0-1.389,0L8.25,4.572,4.083,2.182A1.389,1.389,0,0,0,2,3.391V25.625a4.168,4.168,0,0,0,4.167,4.169H25.612a4.168,4.168,0,0,0,4.167-4.169V17.287A1.389,1.389,0,0,0,28.39,15.9ZM6.167,27.015a1.389,1.389,0,0,1-1.389-1.39V5.8L7.556,7.379a1.5,1.5,0,0,0,1.389,0l4.167-2.39,4.167,2.39a1.5,1.5,0,0,0,1.389,0L21.445,5.8v19.83a4.171,4.171,0,0,0,.25,1.39ZM27,25.625a1.389,1.389,0,1,1-2.778,0V18.677H27ZM17.279,15.9H8.945a1.39,1.39,0,0,0,0,2.779h8.334a1.39,1.39,0,0,0,0-2.779Z" transform="translate(-1.5 -1.476)"/></svg>