<?xml version="1.0" encoding="UTF-8"?>
<svg id="Layer_1" data-name="Layer 1" xmlns="http://www.w3.org/2000/svg" version="1.1" viewBox="0 0 28.8 28.8">
  <defs>
    <style>
      .cls-1 {
        fill: #fff;
        stroke-width: 0px;
      }
    </style>
  </defs>
  <path class="cls-1" d="M15.8,20H7.4c-.8,0-1.4.7-1.4,1.4,0,.7.6,1.3,1.4,1.4h8.3c.8,0,1.4-.7,1.4-1.4,0-.7-.6-1.3-1.4-1.4ZM10.2,11.6h2.8c.8,0,1.4-.7,1.4-1.4,0-.7-.6-1.3-1.4-1.4h-2.8c-.8,0-1.4.7-1.4,1.4,0,.7.6,1.3,1.4,1.4ZM26.9,14.4h-4.2V1.9c0-.8-.6-1.4-1.4-1.4-.2,0-.5,0-.7.2l-4.2,2.4L12.3.7c-.4-.2-1-.2-1.4,0l-4.2,2.4L2.6.7c-.7-.4-1.5-.2-1.9.5-.1.2-.2.5-.2.7v22.2c0,2.3,1.9,4.2,4.2,4.2h19.4c2.3,0,4.2-1.9,4.2-4.2h0v-8.3c0-.8-.6-1.4-1.4-1.4ZM4.7,25.5c-.8,0-1.4-.6-1.4-1.4,0,0,0,0,0,0V4.3l2.8,1.6c.4.2,1,.2,1.4,0l4.2-2.4,4.2,2.4c.4.2,1,.2,1.4,0l2.8-1.6v19.8c0,.5,0,.9.2,1.4H4.7ZM25.5,24.1c0,.8-.6,1.4-1.4,1.4-.8,0-1.4-.6-1.4-1.4h0v-6.9h2.8v6.9ZM15.8,14.4H7.4c-.8,0-1.4.7-1.4,1.4,0,.7.6,1.3,1.4,1.4h8.3c.8,0,1.4-.7,1.4-1.4,0-.7-.6-1.3-1.4-1.4Z"/>
</svg>