<?xml version="1.0" encoding="UTF-8"?>
<svg id="Layer_1" data-name="Layer 1" xmlns="http://www.w3.org/2000/svg" version="1.1" viewBox="0 0 22.6 35">
  <defs>
    <style>
      .cls-1 {
        fill: #fff;
        stroke-width: 0px;
      }
    </style>
  </defs>
  <path class="cls-1" d="M11.3,26.8c-.9,0-1.5.7-1.5,1.5,0,.9.7,1.5,1.5,1.5.9,0,1.5-.7,1.5-1.5h0c0-.9-.7-1.5-1.5-1.5ZM20.6.5H2c-.9,0-1.5.7-1.5,1.5v13.9c0,2.6,2.1,4.6,4.6,4.6h1.5v3.7c-2.3,2.6-2,6.5.5,8.7,2.6,2.3,6.5,2,8.7-.5,2.1-2.3,2.1-5.8,0-8.2v-3.7h1.5c2.6,0,4.6-2.1,4.6-4.6h0V2c0-.9-.7-1.5-1.5-1.5ZM11.3,31.4c-1.7,0-3.1-1.4-3.1-3.1,0-.9.4-1.7,1-2.3.3-.3.5-.7.5-1.1v-4.3h3.1v4.3c0,.4.2.9.5,1.1,1.3,1.1,1.4,3.1.2,4.4-.6.6-1.4,1-2.3,1ZM19,15.9c0,.9-.7,1.5-1.5,1.6,0,0,0,0,0,0H5.1c-.9,0-1.5-.7-1.5-1.5v-1.5h15.4v1.5ZM19,11.3H3.6V3.6h15.4v7.7Z"/>
</svg>