<svg xmlns="http://www.w3.org/2000/svg" width="22.621" height="35.016" viewBox="0 0 22.621 35.016"><defs><style>.a{fill:#fff;stroke:#44afa7;}</style></defs><path class="a" d="M15.81,27.266a1.545,1.545,0,1,0,1.544,1.545A1.545,1.545,0,0,0,15.81,27.266ZM25.076,1H6.544A1.545,1.545,0,0,0,5,2.545V16.451a4.634,4.634,0,0,0,4.633,4.635h1.544v3.662a6.179,6.179,0,1,0,9.266,0V21.086h1.544a4.634,4.634,0,0,0,4.633-4.635V2.545A1.545,1.545,0,0,0,25.076,1ZM15.81,31.9a3.09,3.09,0,0,1-2.054-5.377,1.545,1.545,0,0,0,.51-1.143v-4.3h3.089v4.3a1.545,1.545,0,0,0,.51,1.143A3.09,3.09,0,0,1,15.81,31.9Zm7.722-15.451A1.545,1.545,0,0,1,21.988,18H9.633a1.545,1.545,0,0,1-1.544-1.545V14.906H23.532Zm0-4.635H8.089V4.09H23.532Z" transform="translate(-4.5 -0.5)"/></svg>