<svg xmlns="http://www.w3.org/2000/svg" width="26.469" height="33.103" viewBox="0 0 26.469 33.103"><defs><style>.a{fill:#d8a379;}</style></defs><path class="a" d="M17.235,21.862a1.655,1.655,0,0,0-1.654,1.655v3.31a1.654,1.654,0,1,0,3.309,0v-3.31A1.655,1.655,0,0,0,17.235,21.862Zm.629-4.833a1.654,1.654,0,0,0-.96-.132l-.3.1-.3.149-.248.2a1.651,1.651,0,0,0,.546,2.731,1.389,1.389,0,0,0,.629.132,1.662,1.662,0,0,0,1.175-2.83,1.9,1.9,0,0,0-.546-.348Zm12.606-3.542a2.169,2.169,0,0,0-.1-.447v-.149a1.771,1.771,0,0,0-.314-.463h0L20.13,2.5h0a1.77,1.77,0,0,0-.463-.314H19.5A1.819,1.819,0,0,0,18.988,2H8.963A4.964,4.964,0,0,0,4,6.965V30.137A4.964,4.964,0,0,0,8.963,35.1H25.506a4.964,4.964,0,0,0,4.963-4.965V13.487ZM20.543,7.644l4.285,4.287H22.2a1.655,1.655,0,0,1-1.654-1.655Zm6.617,22.493a1.655,1.655,0,0,1-1.654,1.655H8.963a1.655,1.655,0,0,1-1.654-1.655V6.965A1.655,1.655,0,0,1,8.963,5.31h8.272v4.965A4.964,4.964,0,0,0,22.2,15.241h4.963Z" transform="translate(-4 -2)"/></svg>