<svg xmlns="http://www.w3.org/2000/svg" xmlns:xlink="http://www.w3.org/1999/xlink" width="24" height="23" viewBox="0 0 24 23"><defs><style>.a{fill:#414141;}.b{clip-path:url(#a);}.c{fill:none;}</style><clipPath id="a"><rect class="a" width="24" height="23" transform="translate(0 -0.001)"/></clipPath></defs><g class="b" transform="translate(0 0.001)"><g transform="translate(-0.283 -0.647)"><path class="c" d="M0,0H23.521V23.521H0Z"/><path class="a" d="M15.926,14.114A1.951,1.951,0,0,0,17.641,13.1l3.509-6.36a.976.976,0,0,0-.853-1.45H5.793l-.921-1.96h-3.2v1.96h1.96l3.528,7.438L5.832,15.123a1.964,1.964,0,0,0,1.715,2.911h11.76v-1.96H7.547l1.078-1.96Zm-9.2-6.86H18.631l-2.7,4.9H9.046Zm.823,11.76a1.96,1.96,0,1,0,1.96,1.96A1.957,1.957,0,0,0,7.547,19.014Zm9.8,0a1.96,1.96,0,1,0,1.96,1.96A1.957,1.957,0,0,0,17.347,19.014Z" transform="translate(-0.687 -1.373)"/></g></g></svg>