<svg xmlns="http://www.w3.org/2000/svg" width="28.078" height="29.419" viewBox="0 0 28.078 29.419"><defs><style>.a{fill:#fff;}</style></defs><g transform="translate(0)"><path class="a" d="M67.575,21.284V42.769c0,.063,0,.128-.009.191.012-.081.021-.158.033-.239a1.422,1.422,0,0,1-.1.346l.089-.215a1.986,1.986,0,0,1-.113.206c-.072.116.131-.143.06-.072-.027.027-.051.06-.078.087s-.048.045-.072.066c-.107.1.188-.119.057-.045-.069.039-.134.081-.206.113l.215-.09a1.384,1.384,0,0,1-.346.1l.239-.033a6.362,6.362,0,0,1-.674.009H61.494l.772,1.346a8.029,8.029,0,1,0-14.08-7.7,8.24,8.24,0,0,0-.856,3.109,8.091,8.091,0,0,0,.677,3.8,7.482,7.482,0,0,0,.4.788l.772-1.346H44.127c-.265,0-.543.018-.808-.009l.239.033a1.42,1.42,0,0,1-.346-.1l.215.09a1.984,1.984,0,0,1-.206-.113c-.116-.072.143.131.072.06-.027-.027-.06-.051-.086-.078s-.045-.048-.066-.072c-.1-.107.119.188.045.057-.039-.069-.081-.134-.113-.206l.089.215a1.422,1.422,0,0,1-.1-.346c.012.081.021.158.033.239a6.218,6.218,0,0,1-.009-.707V21.311c0-.063,0-.128.009-.191-.012.081-.021.158-.033.239a1.423,1.423,0,0,1,.1-.346l-.089.215a1.985,1.985,0,0,1,.113-.206c.072-.116-.131.143-.06.072.027-.027.051-.06.078-.087s.048-.045.072-.066c.107-.1-.188.119-.057.045.069-.039.134-.081.206-.113l-.215.09a1.384,1.384,0,0,1,.346-.1l-.239.033a7.233,7.233,0,0,1,.764-.009H67.152c.066,0,.128,0,.194.009l-.239-.033a1.42,1.42,0,0,1,.346.1l-.215-.09a1.985,1.985,0,0,1,.206.113c.116.072-.143-.131-.072-.06.027.027.06.051.087.078s.045.048.066.072c.1.107-.119-.188-.045-.057.039.069.081.134.113.206L67.5,21.01a1.386,1.386,0,0,1,.1.346c-.012-.081-.021-.158-.033-.239,0,.06.006.113.009.167a.895.895,0,1,0,1.79,0A2.215,2.215,0,0,0,67.179,19.1H43.6a2.426,2.426,0,0,0-1.181.278A2.222,2.222,0,0,0,41.3,21.329V42.055a4.168,4.168,0,0,0,.122,1.453,2.241,2.241,0,0,0,1.423,1.376,2.359,2.359,0,0,0,.737.1h5.592a.9.9,0,0,0,.772-1.346,7.649,7.649,0,0,1-.409-.812l.089.215a7.26,7.26,0,0,1-.5-1.832c.012.081.021.158.033.239a7.287,7.287,0,0,1,0-1.907c-.012.081-.021.158-.033.239a7.263,7.263,0,0,1,.5-1.817l-.089.215a7.241,7.241,0,0,1,.483-.946c.092-.149.188-.3.292-.442.027-.036.054-.075.081-.11.012-.015.024-.03.036-.048.051-.072-.084.119-.081.1.015-.066.128-.158.173-.212a7.013,7.013,0,0,1,.737-.752c.063-.057.128-.11.194-.164l.107-.087c.1-.084-.185.137-.042.033s.286-.206.432-.3a7.131,7.131,0,0,1,1.077-.567l-.215.09a7.22,7.22,0,0,1,1.816-.5l-.239.033a7.254,7.254,0,0,1,1.9,0l-.239-.033a7.254,7.254,0,0,1,1.816.5l-.215-.09a7.236,7.236,0,0,1,.945.483c.149.093.3.188.441.292l.11.081c.015.012.03.024.048.036.072.051-.119-.084-.1-.081.066.015.158.128.212.173a7.011,7.011,0,0,1,.752.737c.057.063.11.128.164.194.03.036.057.072.086.107.084.1-.137-.185-.033-.042s.206.286.3.433a7.136,7.136,0,0,1,.567,1.077l-.089-.215a7.228,7.228,0,0,1,.5,1.817c-.012-.081-.021-.158-.033-.239a7.419,7.419,0,0,1,0,1.907c.012-.081.021-.158.033-.239a7.226,7.226,0,0,1-.5,1.832l.089-.215a7.65,7.65,0,0,1-.409.812A.9.9,0,0,0,61.5,44.98h2.726c.984,0,1.965.009,2.95,0a2.213,2.213,0,0,0,2.2-2.184V21.284a.9.9,0,0,0-1.8,0Z" transform="translate(-41.293 -19.099)"/><path class="a" d="M253.295,19.972v8.122l1.345-.773-2.932-1.537c-.125-.066-.253-.137-.382-.2a.987.987,0,0,0-.942.018c-.066.036-.134.069-.2.1-.564.3-1.13.591-1.694.889l-1.381.725,1.345.773V19.972l-.895.9h6.627a.9.9,0,0,0,0-1.79h-6.627a.907.907,0,0,0-.895.9v8.122a.9.9,0,0,0,1.345.773l2.9-1.519c.14-.072.277-.146.418-.218h-.9l2.9,1.519c.14.072.277.146.418.218a.9.9,0,0,0,1.345-.773V19.972a.892.892,0,1,0-1.784,0Zm3.818,20.491a7.3,7.3,0,0,1-.063.955c.012-.081.021-.158.033-.239a7.228,7.228,0,0,1-.5,1.832l.089-.215a7.274,7.274,0,0,1-.71,1.283c-.057.084-.119.161-.176.245.173-.245.051-.066.006-.012s-.072.09-.11.131c-.14.164-.286.322-.438.471s-.313.3-.48.43l-.134.107c.233-.191.066-.051.009-.009-.08.06-.164.116-.248.173a7.135,7.135,0,0,1-1.178.639l.215-.09a7.2,7.2,0,0,1-1.828.5l.239-.033a7.322,7.322,0,0,1-1.912,0l.239.033a7.2,7.2,0,0,1-1.828-.5l.215.09a7.019,7.019,0,0,1-1.178-.639c-.084-.057-.167-.113-.248-.173-.054-.042-.224-.182.009.009L247,45.345c-.167-.137-.325-.28-.48-.43s-.3-.307-.438-.471c-.036-.045-.075-.087-.11-.131s-.167-.233.006.012c-.057-.081-.119-.161-.176-.245a7.275,7.275,0,0,1-.71-1.283l.089.215a7.261,7.261,0,0,1-.5-1.832c.012.081.021.158.033.239a7.288,7.288,0,0,1,0-1.907c-.012.081-.021.158-.033.239a7.263,7.263,0,0,1,.5-1.817l-.089.215a7.241,7.241,0,0,1,.483-.946c.092-.149.188-.3.292-.442l.081-.11c.012-.015.024-.03.036-.048.051-.072-.084.119-.081.1.015-.066.128-.158.173-.212a7.013,7.013,0,0,1,.737-.752c.063-.057.128-.11.194-.164.036-.03.072-.057.107-.087.1-.084-.185.137-.042.033s.286-.206.432-.3a7.129,7.129,0,0,1,1.077-.567l-.215.09a7.22,7.22,0,0,1,1.816-.5l-.239.033a7.254,7.254,0,0,1,1.9,0l-.239-.033a7.255,7.255,0,0,1,1.816.5l-.215-.09a7.235,7.235,0,0,1,.945.483c.149.092.3.188.441.292l.11.081c.015.012.03.024.048.036.072.051-.119-.084-.1-.081.066.015.158.128.212.173a7.01,7.01,0,0,1,.752.737c.057.063.11.128.164.194.03.036.057.072.087.107.083.1-.137-.185-.033-.042s.206.286.3.433a7.135,7.135,0,0,1,.567,1.077l-.089-.215a7.227,7.227,0,0,1,.5,1.817c-.012-.081-.021-.158-.033-.239.027.316.048.633.048.952a.895.895,0,1,0,1.79,0,8.016,8.016,0,0,0-4.608-7.263,7.868,7.868,0,0,0-2.168-.662,8.654,8.654,0,0,0-2.559.009,8.017,8.017,0,0,0-6.159,10.85,8.464,8.464,0,0,0,1.426,2.351,7.993,7.993,0,0,0,6.684,2.718,8.17,8.17,0,0,0,4.674-1.987,7.947,7.947,0,0,0,2.562-4.485,8.754,8.754,0,0,0,.149-1.528.895.895,0,0,0-1.79,0Z" transform="translate(-236.837 -19.076)"/><path class="a" d="M360,640.583l2,2,.283.283a.905.905,0,0,0,1.265,0l1.6-1.6,2.547-2.548.585-.585a.894.894,0,1,0-1.265-1.265l-1.6,1.6-2.547,2.548-.585.585h1.265l-2-2-.283-.284A.894.894,0,0,0,360,640.583Z" transform="translate(-350.249 -618.182)"/></g></svg>