<svg xmlns="http://www.w3.org/2000/svg" width="32.755" height="35.331" viewBox="0 0 32.755 35.331"><defs><style>.a{fill:none;stroke:#fff;stroke-linecap:round;stroke-linejoin:round;stroke-width:2px;}</style></defs><g transform="translate(1.401 1.026)"><path class="a" d="M26.986,10.924l-1.891,2.617a.522.522,0,0,0,.116.725l5.041,3.639a.5.5,0,0,0,.36.093l2.413-.255a1.038,1.038,0,0,1,1.125.807l.458,2.008a1.579,1.579,0,0,0,.58.929L35.9,22a1.044,1.044,0,0,0,1.456-.238l3.973-5.513a1.045,1.045,0,0,0-.232-1.462l-.708-.5a1.56,1.56,0,0,0-1.079-.29l-2.019.215a1.038,1.038,0,0,1-1.125-.807l-.452-2.008a1.6,1.6,0,0,0-.615-.929L29.532,6.444h0a10.623,10.623,0,0,0-8.376-1.776l-1.044.221a.528.528,0,0,0-.2.94Z" transform="translate(-11.18 -4.443)"/><path class="a" d="M0,0H5.187l.005,22.153a2.32,2.32,0,0,1-2.32,2.32h-.54A2.322,2.322,0,0,1,.011,22.153L.006,0Z" transform="translate(14.309 10.02) rotate(35.79)"/></g></svg>