<svg xmlns="http://www.w3.org/2000/svg" xmlns:xlink="http://www.w3.org/1999/xlink" width="38.092" height="38.092" viewBox="0 0 38.092 38.092"><defs><style>.a{fill:#fff;}.b{clip-path:url(#a);}.c{fill:none;}</style><clipPath id="a"><rect class="a" width="38.092" height="38.092" transform="translate(0 0)"/></clipPath></defs><g class="b"><g transform="translate(0 0)"><path class="c" d="M0,0H38.092V38.092H0Z"/><path class="a" d="M26.347,5A9.5,9.5,0,0,0,19.2,8.317,9.5,9.5,0,0,0,12.063,5a8.645,8.645,0,0,0-8.729,8.729c0,6,5.4,10.888,13.57,18.316l2.3,2.079,2.3-2.1c8.174-7.412,13.57-12.3,13.57-18.3A8.645,8.645,0,0,0,26.347,5ZM19.364,29.68l-.159.159-.159-.159C11.491,22.84,6.508,18.316,6.508,13.729a5.424,5.424,0,0,1,5.555-5.555,6.2,6.2,0,0,1,5.666,3.746H20.7a6.165,6.165,0,0,1,5.65-3.746A5.424,5.424,0,0,1,31.9,13.729C31.9,18.316,26.919,22.84,19.364,29.68Z" transform="translate(-0.159 -0.239)"/></g></g></svg>