<svg xmlns="http://www.w3.org/2000/svg" width="113.132" height="65.694" viewBox="0 0 113.132 65.694"><defs><style>.a{fill:#454545;}</style></defs><path class="a" d="M50.223,141.113c-2.485-1.653-2.449-9.01.052-10.989a2.822,2.822,0,0,1,2.251-.626c1.544,0,2.006.231,2.218,1.1.173.709-.135,1.507-.583,1.507a.349.349,0,0,1-.383-.3c0-.559-1.137-1.468-1.753-1.4-1.115.124-1.654,1.5-1.775,4.534-.132,3.271.248,5.067,1.172,5.545.881.457,1.5.187,2.1-.911.787-1.453,1.359-1.166,1.359.678,0,.859-.074.961-.867,1.179a4.642,4.642,0,0,1-3.79-.324m10.425.339c-.316-.152-.3-.254.085-.589.361-.318.427-.648.3-1.514-.217-1.457-.336-1.572-1.7-1.677-.916-.07-1.216,0-1.428.313-.355.522-.352,2.755,0,2.929.663.324.162.544-1.238.544a4.976,4.976,0,0,1-1.514-.117,2.253,2.253,0,0,1,.385-.6,10.086,10.086,0,0,0,.933-2.329c1.368-4.606,1.973-6.724,2.262-7.883.275-1.1.388-1.25.969-1.25.542,0,.685.141.834.816.1.448.594,2.577,1.1,4.73s1.007,4.256,1.106,4.676a3.9,3.9,0,0,0,.581,1.27c.22.278.327.565.237.637a6.9,6.9,0,0,1-2.917.044m-.275-5.158a14.789,14.789,0,0,0-.9-3.46c-.2-.159-.25-.041-.817,1.988a5.008,5.008,0,0,0-.294,1.685,2.316,2.316,0,0,0,1.079.167c.721,0,.944-.091.936-.381m4.621,5.208c-.886-.085-.87-.041-.347-.835.6-.9.608-9.582.011-10.2-.793-.826-.545-.966,1.712-.966,2.782,0,3.685.4,4.2,1.857a4.342,4.342,0,0,1-.842,4.03l-.589.655.688,1.35c.377.744.883,1.792,1.123,2.329a2.906,2.906,0,0,0,.977,1.246c.462.228.605.2.969-.211.641-.724.627-9.847-.017-10.41-.242-.211-.358-.487-.259-.615.215-.272,2.9-.315,2.9-.046a3.509,3.509,0,0,1-.449.9c-.391.618-.432,1.335-.3,5.372.1,3.077.261,4.763.473,4.965.586.557.041.7-2.5.67-2.989-.039-2.917.009-3.99-2.758-.793-2.04-1.192-2.507-1.937-2.281-.391.117-.435.411-.314,2.09a5.554,5.554,0,0,0,.49,2.283c.589.561-.1.763-2,.583m3.633-6.663a3.668,3.668,0,0,0,.471-1.7c.16-1.8-.248-2.425-1.632-2.516l-1.026-.067v2.286c0,1.938.072,2.318.473,2.5a1.588,1.588,0,0,0,1.714-.5m8.556,6.626c-.259-.128-.267-.278-.039-.618.394-.583.421-10.4.028-10.589a.545.545,0,0,1-.275-.448c0-.248.476-.313,2.27-.313,3.682,0,4.6.748,4.274,3.469a3.051,3.051,0,0,1-.718,1.644l-.592.594.669.626a3.55,3.55,0,0,1-.5,5.23,13.086,13.086,0,0,1-5.113.4m4.282-1.333c.407-.357.523-.789.523-1.951,0-1.722-.372-2.179-1.822-2.233l-.93-.035-.08,2.049a11.3,11.3,0,0,0,.061,2.338c.22.452,1.659.344,2.248-.167m-.2-5.743a3.061,3.061,0,0,0,.49-2.912,1.952,1.952,0,0,0-2.265-.963c-.526.159-.57,4.112-.047,4.275a2.507,2.507,0,0,0,1.822-.4m3.9,7.09c-.347-.183-.338-.267.069-.622s.471-.994.471-5.326c0-4.078-.072-4.969-.413-5.241-.817-.646-.462-.792,1.94-.792a10.1,10.1,0,0,1,3.135.32c1.514.618,1.91,3.149.713,4.543l-.68.792.68.792a2.729,2.729,0,0,1,.677,2.229c-.008,2.475-.914,3.221-4.125,3.4a8.859,8.859,0,0,1-2.466-.094m4.392-1.324c.438-.346.55-.724.55-1.859,0-1.231-.094-1.5-.693-1.97a1.971,1.971,0,0,0-1.307-.481c-.586.067-.616.176-.691,2.407l-.08,2.338h.837a2.553,2.553,0,0,0,1.384-.435m-.74-5.422c1.192-.359,1.736-2.677.861-3.664a1.665,1.665,0,0,0-1.376-.483h-.947v2.029c0,2.433.072,2.536,1.461,2.118m4.626,6.744c-.319-.157-.308-.27.069-.694.644-.729.677-9.995.036-10.415a.879.879,0,0,1-.413-.57c0-.237.66-.3,3.165-.3h3.165v1.429c0,1.2-.072,1.42-.446,1.359-.245-.037-.586-.411-.757-.831-.292-.713-.394-.766-1.618-.826l-1.307-.067v2.064c0,1.888.047,2.075.564,2.205.666.165,1.362-.226,1.362-.77,0-.391.638-.724.936-.487a5.935,5.935,0,0,1,.165,1.833c0,1.394-.077,1.7-.427,1.7-.237,0-.559-.3-.721-.665-.239-.544-.424-.652-1.018-.6l-.724.067v4.567l1.17.067c1.252.072,1.28.048,1.9-1.59.135-.359.429-.652.652-.652.325,0,.391.278.327,1.359-.061,1.053.008,1.359.305,1.359.506,0,1.062-1.261,1.962-4.458.768-2.731,1.445-5.082,1.86-6.483.2-.685.352-.818.853-.761.655.074.6-.059,1.541,3.873,1.492,6.263,1.783,7.32,2.13,7.738.5.6.25.744-1.258.739-1.665,0-2.152-.239-1.519-.739.377-.3.44-.626.319-1.679a5.862,5.862,0,0,0-.261-1.4,5.368,5.368,0,0,0-2.463-.067c-.718.3-.985,2.475-.369,3.014.716.624.3.861-1.307.744a27.035,27.035,0,0,0-4.742,0,15.115,15.115,0,0,1-3.132-.074m11.622-4.967c.215-.274-.694-3.8-.927-3.6a10.682,10.682,0,0,0-.919,3.6,2.708,2.708,0,0,0,1.847,0m4.081,4.978c-.3-.148-.283-.248.069-.524.63-.5.649-10.4.022-10.81-.611-.4-.239-.655.958-.655s.892-.444,3.173,4.567a18.22,18.22,0,0,0,1.274,2.49c.129.115.234-1.2.234-2.977a10.034,10.034,0,0,0-.275-3.319.545.545,0,0,1-.275-.448c0-.226.344-.313,1.238-.313,1.23,0,1.588.289.969.779a31.32,31.32,0,0,0-.369,5.7,49.807,49.807,0,0,1-.27,5.619.721.721,0,0,1-.548.02c-.355-.109-.76-.907-2.716-5.376-1.574-3.595-1.569-3.6-1.591.5a14.652,14.652,0,0,0,.286,4.1c.234.346.217.491-.069.635a3.208,3.208,0,0,1-2.111,0m12.07-.017c-.347-.174-.339-.259.069-.613s.471-1,.471-5.372-.055-4.993-.454-5.224c-.735-.424-.165-.763,1.28-.763s1.885.228,1.236.655c-.314.2-.41.779-.41,2.416v2.149h3.3V132.8c0-1.348-.121-2.04-.4-2.338-.74-.772-.52-.966,1.093-.966a3.272,3.272,0,0,1,1.514.185,3.255,3.255,0,0,1-.438.874c-.366.581-.421,1.429-.344,5.328.072,3.56.182,4.723.476,5,.5.478.305.6-1.159.731-1.346.12-1.841-.176-1.244-.746.256-.244.369-1.05.369-2.653v-2.305l-1.582-.065-1.582-.065v2.377c0,1.907.085,2.434.438,2.662.4.261.394.313-.052.572a3.7,3.7,0,0,1-2.576.076m10.953-.283c-1.428-.953-1.723-1.753-1.833-4.984-.124-3.6.272-4.989,1.756-6.159a2.723,2.723,0,0,1,3.187-.422c3.079,1.259,3.214,10.034.179,11.713a3.563,3.563,0,0,1-3.289-.148m2.507-.8c.826-.652,1.192-2.068,1.216-4.686.033-3.817-.861-5.719-2.427-5.154-1,.361-1.527,2.022-1.527,4.852,0,2.625.4,4.33,1.159,4.976.641.546.9.548,1.58.013m6.046.689c-1.15-.811-1.326-1.688-1.343-6.6-.008-3.314-.085-4.1-.421-4.319-.666-.437-.206-.655,1.39-.655,1.563,0,1.946.3,1.084.87-.341.224-.41.963-.4,4.212.019,4.85.154,5.559,1.15,6,.7.311.787.3,1.373-.161.605-.478.627-.646.713-5.132.074-3.988.028-4.689-.344-4.982-.765-.6-.493-.807,1.082-.807,1.613,0,1.833.194,1.093.966-.325.337-.4,1.268-.4,4.628,0,4.443-.165,5.193-1.351,6.131a3.307,3.307,0,0,1-3.624-.15m7.541.385c-.443-.141-.649-.448-.787-1.179-.215-1.133-.047-1.646.542-1.646.245,0,.528.348.707.866a1.492,1.492,0,0,0,1.778,1.174c.677-.207.974-.82.974-2.018,0-1.035-.085-1.166-1.64-2.479-1.88-1.588-2.213-2.14-2.213-3.667,0-2.449,2.119-3.843,4.527-2.975.735.263.919.907.735,2.536-.063.557-.927.141-1.236-.592-.611-1.459-2.034-1.459-2.425,0-.316,1.187.182,2.177,1.662,3.3,1.618,1.227,2.24,2.188,2.237,3.456,0,2.275-1.082,3.458-3.129,3.434a7.611,7.611,0,0,1-1.734-.207m6.054-.061c-.074-.1-.008-.3.149-.446.418-.4.49-10.312.08-10.636-.853-.674-.355-.816,2.848-.816h3.165v1.429c0,1.216-.069,1.42-.457,1.359-.253-.037-.6-.411-.782-.831-.305-.715-.4-.761-1.538-.761h-1.214l-.006,1.848a6.176,6.176,0,0,0,.226,2.107c.355.4,1.4-.007,1.577-.609a.691.691,0,0,1,.556-.52c.311,0,.416.4.479,1.794.066,1.47.006,1.794-.327,1.794a1.18,1.18,0,0,1-.771-.6c-.46-.757-1.464-.916-1.679-.263a10.628,10.628,0,0,0,.005,2.414l.16,1.949,1.128-.065c1.1-.063,1.134-.091,1.382-1.044.237-.909.548-1.294,1.054-1.3.388-.007.231,2.971-.173,3.236-.427.281-5.639.244-5.862-.041m-24.031-12.7a4.692,4.692,0,0,1,2.416-2.242c.347,0,.372.059.116.261-.663.524-.388.87.564.713,3.212-.535,6.811-1.855,6.811-2.5q0-.864-2.84-.866c-3.949,0-5.072-1.185-2.942-3.1,1.962-1.759,6.891-3.316,6.877-2.173-.008.757-.462.992-2,1.026-1.681.041-4.42.959-4.879,1.638-.583.861-.1,1.087,2.328,1.087,3.435,0,4.552.448,4.552,1.827,0,.694-1.362,1.935-2.917,2.655a28.49,28.49,0,0,1-6.7,1.953c-1.255.13-1.387.1-1.387-.278m12.079-2.316a1.513,1.513,0,0,1-.005-1.34,1.717,1.717,0,0,0,.135-1.026c-.083-.109.03-.363.253-.563a3.958,3.958,0,0,0,.735-1.185c.52-1.274,1.665-1.977,1.665-1.02a2.509,2.509,0,0,1-.413,1.076c-.374.574-.369.65.055.837.4.176.413.263.1.555a1.3,1.3,0,0,1-.738.348c-.416,0-.765.835-.605,1.451.074.291.308.381.867.333.677-.057.732-.017.479.357-.561.829-2.094.935-2.532.178m3.36.209c-.438-.415.567-3.812,1.247-4.206.839-.485.988.183.38,1.714-.644,1.627-.63,1.544-.261,1.446a5.373,5.373,0,0,0,1.17-1.485c.484-.774,1-1.359,1.153-1.3.352.139.176,3.49-.2,3.86-.523.509-.762.274-.779-.761-.014-.885-.063-.974-.344-.624a6.518,6.518,0,0,1-1.833,1.657,1.058,1.058,0,0,1-.531-.3m4.819-.043c-.553-1.137.061-2.46,1.651-3.562,1-.7,1.015-.724.671-1.5a4.984,4.984,0,0,0-1.159-1.464c-.718-.6-.76-.7-.372-.957.671-.439,1.629.033,2.306,1.137a5.153,5.153,0,0,1-1.131,6.2c-.671.568-1.726.644-1.968.146m2.46-1.281c.5-.948.537-2.362.058-2.236A3.41,3.41,0,0,0,151.6,125.2c-.171.737-.129.816.407.816.418,0,.713-.224.993-.755m1.665,1.257c-.228-.565.837-3.382,1.4-3.71.74-.433.892-.322.594.435-.721,1.844-.815,2.181-.677,2.462a.485.485,0,0,0,.57.176c.234-.072.424-.033.424.085,0,.311-.586.646-1.42.811-.567.113-.765.057-.892-.259m3.322.222c-.372-.294-.168-1.853.341-2.636a7.672,7.672,0,0,1,1.508-1.551l.982-.746.413.783a2.892,2.892,0,0,1-.974,3.553c-.842.685-1.83.946-2.27.6m2.375-1.327c.462-.626.468-.726.063-1.342a2.356,2.356,0,0,0-.545-.665,4.236,4.236,0,0,0-.567,1.1c-.729,1.729-.017,2.349,1.049.911m-60.3-.048c-3.572-.668-3.093-4.282.638-4.823.539-.078.55-.25.55-8.631,0-4.7-.063-8.631-.14-8.731a47.08,47.08,0,0,0-5.642-.259c-3.823-.052-5.719-.163-6.211-.361-1.472-.589-2.111-2.433-1.2-3.46.823-.929,1.415-1.024,7-1.137l5.366-.109-.063-1.74a6.308,6.308,0,0,0-1.2-4.051c-.454-.474-.487-.476-1.205-.1s-.729.372-.44-.054c.427-.631.385-.683-.531-.683a3.429,3.429,0,0,0-1.926.787c-.941.672-1.1.724-1.1.357a1.846,1.846,0,0,1,.674-1,2.43,2.43,0,0,1,1.926-.576c.691,0,1.252-.1,1.252-.228,0-.383-1.957-.9-3.077-.818-1.244.094-1.315-.063-.305-.689.878-.546,1.7-.452,3.022.339.952.574,1.026.544,1.313-.5A3.118,3.118,0,0,1,101.2,87.1c.556.007.542.046-.228.576-1.1.761-1.786,1.594-1.786,2.19,0,.642.151.62,1.307-.185a2.074,2.074,0,0,1,1.822-.537,3.318,3.318,0,0,1,1.258.455c.358.285.261.322-.823.326a3.906,3.906,0,0,0-1.913.422l-.683.415.66.557c.8.668.578.972-.352.491-.974-.5-1.046-.25-.27.97a11.759,11.759,0,0,1,1.12,3.134c.421,2.005.449,2.053,1.178,2.053.71,0,.76-.065.936-1.309a47.123,47.123,0,0,1,3.165-9.092c.616-1.357,1.123-2.505,1.123-2.555s-.305-.091-.677-.091a4.012,4.012,0,0,0-1.855.861c-1.247.909-1.748.885-1.445-.07a4.661,4.661,0,0,1,2.27-1.859c.421-.185.4-.257-.2-.763a7.8,7.8,0,0,0-6.7-1.12c-.567.159-1.032.213-1.032.117a9.6,9.6,0,0,1,2.945-1.812,5.481,5.481,0,0,1,5.862,1.477c.38.42.812.735.963.7.561-.13.435-1.294-.261-2.418a11.533,11.533,0,0,0-4.486-3.438c-1.021-.37-.707-.589.839-.589a5.59,5.59,0,0,1,5.6,4.434c.1.552.311,1,.482,1a4.062,4.062,0,0,0,1.26-.766A6.61,6.61,0,0,1,115.7,79.1a4.6,4.6,0,0,1,3.179,1.766l.776.855-.944-.152c-3.1-.5-4.736-.341-6.654.646-1.574.809-1.362,1.1.718,1,3.349-.17,5.614,1.277,5.9,3.764l.124,1.087-.812-.87c-1.737-1.862-4.634-3.334-6.021-3.06-.776.154-.815.35-.239,1.227.482.739.608,2.518.2,2.842-.182.144-.319-.159-.407-.894a2.255,2.255,0,0,0-2.067-2.181c-.856,0-1.549,1.213-2.265,3.956a44.513,44.513,0,0,0-1.112,7.951v.924h5.573c4.755,0,5.713.057,6.533.381,2.51,1,2.02,3.784-.771,4.4a57.835,57.835,0,0,1-6.176.222l-5.16,0-.028,4.3c-.014,2.362-.044,6.287-.069,8.723l-.041,4.428,1.4.413c1.558.459,2.149,1.083,2.149,2.268a2.565,2.565,0,0,1-2.061,2.205,32.381,32.381,0,0,1-7.356.07m-25.192-.281c-.809-.465-.991-1.74-.567-3.925,1.767-9.095,1.822-9.51,1.3-10.095a11.881,11.881,0,0,1-2.537-3.643c-.919-2.209-.958-2.457-2.237-14.662-.223-2.12-.2-2.56.168-3a2.111,2.111,0,0,1,3.547.211,20.457,20.457,0,0,1,.809,3.86c.242,1.733.688,4.937.991,7.113.782,5.643,1.09,6.548,2.614,7.675.729.537.806.546,6.7.652,3.28.061,6.115.187,6.3.281a2.288,2.288,0,0,1,.655,1.011,1.473,1.473,0,0,1-.2,1.677,1.729,1.729,0,0,1-1.117.9c-1.178.133-1.194.4-.355,5.052.993,5.506,1.013,6.137.2,6.735a2.132,2.132,0,0,1-2.76-.252c-.52-.552-1.1-2.9-2.105-8.449-.561-3.114-.223-2.827-3.338-2.827a10.814,10.814,0,0,0-2.873.215c-.19.239-.366,1.022-1.527,6.729a22.3,22.3,0,0,1-1.236,4.513,2.091,2.091,0,0,1-2.43.226m40.3-.08c-.614-.339-.638-.448-.482-2.012.094-.909.465-3.366.823-5.459.669-3.891.633-4.349-.358-4.349-.872,0-1.522-.837-1.522-1.957a1.844,1.844,0,0,1,.523-1.5c.5-.435.787-.457,5.815-.457,6.153,0,6.781-.072,7.81-.883,1.321-1.046,1.571-2.159,3.071-13.688.523-4.038.787-4.958,1.56-5.439,1.855-1.155,3.525.117,3.234,2.464-.077.62-.394,3.671-.7,6.781-.735,7.39-1.448,9.782-3.52,11.852a6.116,6.116,0,0,0-.922,1.1,113.114,113.114,0,0,0,2.034,11.6c.319,1.453.308,1.511-.3,1.9a3.382,3.382,0,0,1-1.536.4c-1.75,0-1.9-.283-3.005-5.763-.556-2.751-1.079-5.271-1.159-5.6l-.146-.6h-2.862c-2.749,0-2.868.02-2.989.489-.069.27-.515,2.544-.991,5.056a50.95,50.95,0,0,1-1.156,5.174,2.265,2.265,0,0,1-3.217.883m40.757-3.388c.091-.478.905-1.007,1.2-.774.322.254-.16.994-.724,1.109C155.961,122.045,155.862,121.978,155.931,121.619Z" transform="translate(-48.379 -76)"/></svg>