<svg xmlns="http://www.w3.org/2000/svg" width="33.106" height="34.571" viewBox="0 0 33.106 34.571"><defs><style>.a{fill:#7e70a0;}</style></defs><path class="a" d="M5.311,13.345h0l11.587,5.8ZM14.746,14.5h0l3.807,1.822Zm5.463,4.8,11.587-5.8h0Zm-5.463-4.8h0l3.807,1.822ZM2.828,9.37Zm32.279.994a1.256,1.256,0,0,0-.331-.662.162.162,0,0,0-.166-.166l-.166-.166h-.166l-14.9-7.121a2.3,2.3,0,0,0-1.49,0L2.993,9.37H2.828l-.166.166L2.5,9.7c-.331.166-.331.331-.5.662V27.588a1.739,1.739,0,0,0,.828,1.49L17.56,36.531a2.1,2.1,0,0,0,.993.166,1.492,1.492,0,0,0,.828-.166h.166l14.732-7.452a1.739,1.739,0,0,0,.828-1.49V10.364Zm-5.463.331L18.553,16.326,14.746,14.5h0L25.837,8.874ZM18.553,5.4l3.476,1.656L11.1,12.683,7.463,10.7ZM5.311,13.345l11.587,5.8V32.225l-11.587-5.8ZM31.8,26.594l-11.587,5.8V19.307l11.587-5.8Z" transform="translate(-2 -2.125)"/><g transform="translate(32.279 7.172)"><path class="a" d="M21.5,6.529Z" transform="translate(-21.5 -6.456)"/></g></svg>