<svg xmlns="http://www.w3.org/2000/svg" width="158.394" height="64.326" viewBox="0 0 158.394 64.326"><defs><style>.a{fill:#5881a2;}</style></defs><path class="a" d="M157.119,1067.551a2.673,2.673,0,0,0-2.687,2.644v8.936l-7.486,3.851-8.9,4.578v-6.136a2.733,2.733,0,0,0-5.462,0v10.5a2.6,2.6,0,0,0,1.327,2.246,2.832,2.832,0,0,0,2.693.063l8.039-4.13,13.809-7.095a2.6,2.6,0,0,0,1.442-2.314v-10.5a2.564,2.564,0,0,0-.806-1.883,2.792,2.792,0,0,0-1.969-.76ZM25.991,1030.22a2.832,2.832,0,0,0-1.2.3L2.942,1041.747a2.6,2.6,0,0,0-1.442,2.3V1054.9a2.676,2.676,0,0,0,2.731,2.617,2.676,2.676,0,0,0,2.731-2.617v-9.276l16.386-8.428v6.476a2.733,2.733,0,0,0,5.462,0v-10.847a2.564,2.564,0,0,0-.834-1.874,2.8,2.8,0,0,0-1.984-.733Z" transform="translate(-1.5 -1030.218)"/></svg>