<svg xmlns="http://www.w3.org/2000/svg" width="35.208" height="35.225" viewBox="0 0 35.208 35.225"><defs><style>.a{fill:#557e9f;}</style></defs><path class="a" d="M19.6,2a17.612,17.612,0,1,0,17.6,17.612A17.608,17.608,0,0,0,19.6,2Zm0,31.7a14.09,14.09,0,1,1,14.083-14.09A14.086,14.086,0,0,1,19.6,33.7Z" transform="translate(-2 -2)"/><path class="a" d="M14.521,15.845V7.761a1.76,1.76,0,1,0-3.521,0v8.806a1.762,1.762,0,0,0,.511,1.25l7.042,7.045a1.768,1.768,0,1,0,2.5-2.5Z" transform="translate(4.843 1.045)"/></svg>