<svg xmlns="http://www.w3.org/2000/svg" width="32.536" height="30.353" viewBox="0 0 32.536 30.353"><defs><style>.a{fill:#fff;}</style></defs><path class="a" d="M21.1,22.846a11.406,11.406,0,0,0-4,.721l-6.276-6.279L6.773,21.334l6.935,6.938a9.524,9.524,0,0,0-.23,11.74H5.719V36.2H0V47.641H32.536V40.012H31A11.446,11.446,0,0,0,21.1,22.846ZM30.63,34.29a9.46,9.46,0,0,1-2.154,6.033l-4.095-4.1a3.811,3.811,0,0,0-5.219-5.221l-4.095-4.1a9.45,9.45,0,0,1,6.03-2.155A9.545,9.545,0,0,1,30.63,34.29ZM21.1,32.383a1.907,1.907,0,1,1-1.906,1.907A1.909,1.909,0,0,1,21.1,32.383Zm-10.281-12.4,4.454,4.456a11.474,11.474,0,0,0-1.57,1.126L9.469,21.334Zm4.259,9.628,2.739,2.74a3.811,3.811,0,0,0,5.219,5.221l2.739,2.74a7.558,7.558,0,0,1-4.674,1.6,7.627,7.627,0,0,1-6.022-12.306ZM1.906,38.1H3.813v1.907H1.906ZM30.63,41.919v3.815H1.906V41.919H15.385a9.513,9.513,0,0,0,11.743-.247l1.38,1.381.674-.674q.224-.224.434-.459Z" transform="translate(0 -17.288)"/></svg>