<svg xmlns="http://www.w3.org/2000/svg" xmlns:xlink="http://www.w3.org/1999/xlink" width="38.092" height="38.092" viewBox="0 0 38.092 38.092"><defs><style>.a{fill:#fff;}.b{clip-path:url(#a);}.c{fill:none;}</style><clipPath id="a"><rect class="a" width="38.092" height="38.092"/></clipPath></defs><g class="b"><path class="c" d="M0,0H38.092V38.092H0Z"/><path class="a" d="M29.668,26.254a4.622,4.622,0,0,0-3.111,1.222L15.24,20.889a5.2,5.2,0,0,0,.143-1.111,5.2,5.2,0,0,0-.143-1.111L26.43,12.144a4.751,4.751,0,1,0-1.524-3.476,5.2,5.2,0,0,0,.143,1.111L13.86,16.3a4.761,4.761,0,1,0,0,6.952l11.3,6.6a4.478,4.478,0,0,0-.127,1.032,4.635,4.635,0,1,0,4.635-4.634Zm0-19.173a1.587,1.587,0,1,1-1.587,1.587A1.592,1.592,0,0,1,29.668,7.081ZM10.622,21.366a1.587,1.587,0,1,1,1.587-1.587A1.592,1.592,0,0,1,10.622,21.366ZM29.668,32.507a1.587,1.587,0,1,1,1.587-1.587A1.592,1.592,0,0,1,29.668,32.507Z" transform="translate(-1.099 -0.733)"/></g></svg>