<svg xmlns="http://www.w3.org/2000/svg" width="94.636" height="115.018" viewBox="0 0 94.636 115.018"><defs><style>.a{fill:#5881a2;}</style></defs><path class="a" d="M60.485,23.282V17.745h5.63a2.4,2.4,0,0,0,2.4-2.4V4.9a2.4,2.4,0,0,0-2.4-2.4H41.486a2.4,2.4,0,0,0-2.4,2.4V15.348a2.4,2.4,0,0,0,2.4,2.4H47.6v5.537a47.21,47.21,0,0,0-22.257,9.3L19.3,26.566a2.4,2.4,0,0,0-3.4,0l-5.606,5.657a2.4,2.4,0,0,0,0,3.4l6.038,6.016a47.376,47.376,0,1,0,75.493.12l6.109-6.136a2.4,2.4,0,0,0,0-3.4l-5.654-5.657a2.4,2.4,0,0,0-3.378,0l-6.085,6.088a47.09,47.09,0,0,0-22.329-9.372ZM43.882,7.294H63.719v5.657H43.882Zm8.505,15.58v-5.13h3.306v5.13ZM15.371,33.924l2.4-2.277L21.7,35.674a23.926,23.926,0,0,0-2.252,2.4ZM54.04,112.761A42.548,42.548,0,0,1,21.073,43.249h.168a1.8,1.8,0,0,0,.216-.36,41.6,41.6,0,0,1,5.031-5.034,3.9,3.9,0,0,0,.407-.264,1.27,1.27,0,0,0,.144-.24,42.561,42.561,0,1,1,27,75.409ZM90.624,31.647l2.252,2.277-4.1,4.123c-.719-.767-1.485-1.534-2.252-2.277Z" transform="translate(-6.77 -2.5)"/><path class="a" d="M49.838,23.252a2.4,2.4,0,0,0,2.4-2.4V16.4a2.4,2.4,0,1,0-4.792,0v4.434a2.4,2.4,0,0,0,2.4,2.421Zm0,61.7a2.4,2.4,0,0,0-2.4,2.4v4.458a2.4,2.4,0,1,0,4.792,0V87.348A2.4,2.4,0,0,0,49.838,84.951ZM83.069,56.5H87.5a2.4,2.4,0,0,0,0-4.794H83.069a2.4,2.4,0,0,0,0,4.794ZM16.608,51.7H12.176a2.4,2.4,0,0,0,0,4.794h4.432a2.4,2.4,0,0,0,0-4.794ZM74.779,25.769l-3.139,3.14a2.389,2.389,0,0,0,3.378,3.38l3.163-3.14a2.4,2.4,0,1,0-3.4-3.38Zm-50.1,50.145L21.52,79.078a2.4,2.4,0,0,0,3.4,3.38l3.139-3.14a2.4,2.4,0,0,0-3.378-3.4Zm50.313,0a2.4,2.4,0,0,0-3.378,3.4l3.139,3.14a2.4,2.4,0,0,0,3.4-3.38ZM24.9,25.769a2.4,2.4,0,1,0-3.4,3.38l3.186,3.14a2.389,2.389,0,1,0,3.378-3.38Z" transform="translate(-2.569 13.565)"/></svg>