<svg xmlns="http://www.w3.org/2000/svg" width="32.52" height="30.212" viewBox="0 0 32.52 30.212"><defs><style>.a{fill:#fff;}</style></defs><path class="a" d="M19.1,33.212A15.12,15.12,0,0,1,4,18.106a1.161,1.161,0,1,1,2.323,0A12.778,12.778,0,1,0,9.575,9.585a1.162,1.162,0,1,1-1.731-1.55A15.1,15.1,0,1,1,19.1,33.212Z" transform="translate(-1.677 -3)"/><path class="a" d="M7.807,17.81a1.158,1.158,0,0,1-.821-.34l-1.5-1.5-1.5,1.5A1.162,1.162,0,1,1,2.34,15.826L4.663,13.5a1.161,1.161,0,0,1,1.642,0l2.323,2.324a1.162,1.162,0,0,1-.821,1.984Zm8.13,2.324H11.292a1.162,1.162,0,0,1-1.161-1.162V16.648a1.162,1.162,0,0,1,.34-.821L12.793,13.5a1.161,1.161,0,0,1,.821-.34h2.323A1.162,1.162,0,0,1,17.1,14.324v4.648A1.162,1.162,0,0,1,15.937,20.134ZM12.453,17.81h2.323V15.486H14.1l-1.642,1.643Zm16.26,2.324H18.26A1.162,1.162,0,0,1,17.1,18.972v-5.81A1.162,1.162,0,0,1,18.26,12H28.713a1.162,1.162,0,0,1,1.161,1.162v5.81A1.162,1.162,0,0,1,28.713,20.134ZM19.422,17.81h8.13V14.324h-8.13Z" transform="translate(-2 -1.542)"/><ellipse class="a" cx="1.999" cy="2" rx="1.999" ry="2" transform="translate(9.995 17)"/><ellipse class="a" cx="1.999" cy="2" rx="1.999" ry="2" transform="translate(16.992 17)"/><ellipse class="a" cx="1.999" cy="2" rx="1.999" ry="2" transform="translate(22.989 17)"/></svg>