<svg xmlns="http://www.w3.org/2000/svg" width="35.944" height="24.429" viewBox="0 0 35.944 24.429"><defs><style>.a{fill:#fff;}</style></defs><path class="a" d="M90.857,301.367a4.514,4.514,0,1,0,4.512,4.514A4.518,4.518,0,0,0,90.857,301.367Zm0,6.752a2.238,2.238,0,1,1,2.237-2.238A2.24,2.24,0,0,1,90.857,308.119Zm-19.375-6.752a4.514,4.514,0,1,0,4.512,4.514A4.518,4.518,0,0,0,71.482,301.367Zm0,6.752a2.238,2.238,0,1,1,2.237-2.238A2.24,2.24,0,0,1,71.482,308.119Z" transform="translate(-62.269 -285.966)"/><path class="a" d="M202.006,142.241l-3.261-5.576a1.138,1.138,0,0,0-.982-.563h-9.782v2.276h9.13l2.776,4.747v7.961h-1.706v2.276h2.844a1.138,1.138,0,0,0,1.137-1.138v-9.408A1.137,1.137,0,0,0,202.006,142.241Zm-23.238,8.844h12.7v2.276h-12.7Z" transform="translate(-166.218 -132.309)"/><path class="a" d="M21.763,82.093H1.137A1.138,1.138,0,0,0,0,83.231v18.777a1.138,1.138,0,0,0,1.137,1.138H5.384V100.87H2.275v-16.5H20.626v17.639H22.9V83.231A1.138,1.138,0,0,0,21.763,82.093Z" transform="translate(0 -82.093)"/><path class="a" d="M81.522,151.294H94.564v2.276H81.522Zm-4.55-4.931h-6.6a1.138,1.138,0,0,0,0,2.276h6.6a1.138,1.138,0,0,0,0-2.276Zm0,4.059H65.408a1.138,1.138,0,0,0,0,2.276H76.972a1.138,1.138,0,0,0,0-2.276Zm0,4.021H73.863a1.138,1.138,0,0,0,0,2.276h3.109a1.138,1.138,0,0,0,0-2.276Z" transform="translate(-59.758 -141.849)"/></svg>